<?xml version="1.0" encoding="UTF-8"?><svg xmlns="http://www.w3.org/2000/svg" xmlns:xlink="http://www.w3.org/1999/xlink" fill-opacity="1" color-rendering="auto" color-interpolation="auto" text-rendering="auto" stroke="black" stroke-linecap="square" width="1430" stroke-miterlimit="10" shape-rendering="auto" stroke-opacity="1" fill="black" stroke-dasharray="none" font-weight="normal" stroke-width="1" height="1430" font-family="'Dialog'" font-style="normal" stroke-linejoin="miter" font-size="12px" stroke-dashoffset="0" image-rendering="auto">
  <!--Generated by ySVG 2.6-->
  <defs id="genericDefs"/>
  <g>
    <defs id="defs1">
      <clipPath clipPathUnits="userSpaceOnUse" id="clipPath1">
        <path d="M0 0 L1430 0 L1430 1430 L0 1430 L0 0 Z"/>
      </clipPath>
      <clipPath clipPathUnits="userSpaceOnUse" id="clipPath2">
        <path d="M-215 -215 L1215 -215 L1215 1215 L-215 1215 L-215 -215 Z"/>
      </clipPath>
    </defs>
    <g fill="white" text-rendering="geometricPrecision" shape-rendering="geometricPrecision" transform="translate(215,215)" stroke="white">
      <rect x="-215" width="1430" height="1430" y="-215" clip-path="url(#clipPath2)" stroke="none"/>
    </g>
    <g fill="rgb(51,153,102)" text-rendering="geometricPrecision" shape-rendering="geometricPrecision" transform="matrix(1,0,0,1,215,215)" stroke="rgb(51,153,102)">
      <rect x="-200" width="1400" height="1400" y="-200" clip-path="url(#clipPath2)" stroke="none"/>
    </g>
    <g text-rendering="geometricPrecision" stroke-miterlimit="1.45" shape-rendering="geometricPrecision" transform="matrix(1,0,0,1,215,215)" stroke-linecap="butt">
      <rect fill="none" x="-200" width="1400" height="1400" y="-200" clip-path="url(#clipPath2)"/>
    </g>
    <g stroke-linecap="butt" font-size="24px" transform="matrix(1,0,0,1,215,215)" fill="white" text-rendering="geometricPrecision" font-family="sans-serif" shape-rendering="geometricPrecision" stroke="white" font-weight="bold" stroke-miterlimit="1.45">
      <text x="-194" xml:space="preserve" y="-169.8711" clip-path="url(#clipPath2)" stroke="none">Nexys A7</text>
    </g>
    <g fill="white" text-rendering="geometricPrecision" shape-rendering="geometricPrecision" transform="matrix(1,0,0,1,215,215)" stroke="white">
      <rect x="-30" y="-32.5" clip-path="url(#clipPath2)" width="1060" rx="4" ry="4" height="1060" stroke="none"/>
    </g>
    <g text-rendering="geometricPrecision" stroke-miterlimit="1.45" shape-rendering="geometricPrecision" transform="matrix(1,0,0,1,215,215)" stroke-linecap="butt">
      <rect x="-30" y="-32.5" clip-path="url(#clipPath2)" fill="none" width="1060" rx="4" ry="4" height="1060"/>
      <text x="-24" font-size="20px" y="-6.3926" clip-path="url(#clipPath2)" font-family="sans-serif" stroke="none" xml:space="preserve">Artix 100T</text>
    </g>
    <g fill="rgb(25,187,156)" text-rendering="geometricPrecision" shape-rendering="geometricPrecision" transform="matrix(1,0,0,1,215,215)" stroke="rgb(25,187,156)">
      <rect x="0" width="1000" height="1000" y="0" clip-path="url(#clipPath2)" stroke="none"/>
    </g>
    <g text-rendering="geometricPrecision" stroke-miterlimit="1.45" shape-rendering="geometricPrecision" transform="matrix(1,0,0,1,215,215)" stroke-linecap="butt">
      <rect fill="none" x="0" width="1000" height="1000" y="0" clip-path="url(#clipPath2)"/>
      <text x="6" font-size="20px" y="26.1074" clip-path="url(#clipPath2)" font-family="sans-serif" stroke="none" xml:space="preserve">Top.vhd</text>
    </g>
    <g fill="white" text-rendering="geometricPrecision" shape-rendering="geometricPrecision" transform="matrix(1,0,0,1,215,215)" stroke="white">
      <rect x="450" y="-200" clip-path="url(#clipPath2)" width="100" rx="4" ry="4" height="100" stroke="none"/>
    </g>
    <g text-rendering="geometricPrecision" stroke-miterlimit="1.45" shape-rendering="geometricPrecision" transform="matrix(1,0,0,1,215,215)" stroke-linecap="butt">
      <rect x="450" y="-200" clip-path="url(#clipPath2)" fill="none" width="100" rx="4" ry="4" height="100"/>
      <text x="492.667" xml:space="preserve" y="-145.2861" clip-path="url(#clipPath2)" font-family="sans-serif" stroke="none">clk</text>
    </g>
    <g fill="white" text-rendering="geometricPrecision" shape-rendering="geometricPrecision" transform="matrix(1,0,0,1,215,215)" stroke="white">
      <rect x="1100" y="700" clip-path="url(#clipPath2)" width="100" rx="4" ry="4" height="200" stroke="none"/>
    </g>
    <g text-rendering="geometricPrecision" stroke-miterlimit="1.45" shape-rendering="geometricPrecision" transform="matrix(1,0,0,1,215,215)" stroke-linecap="butt">
      <rect x="1100" y="700" clip-path="url(#clipPath2)" fill="none" width="100" rx="4" ry="4" height="200"/>
      <text x="1106" xml:space="preserve" y="718.0645" clip-path="url(#clipPath2)" font-family="sans-serif" stroke="none">Switches</text>
    </g>
    <g fill="white" text-rendering="geometricPrecision" shape-rendering="geometricPrecision" transform="matrix(1,0,0,1,215,215)" stroke="white">
      <rect x="300" y="1100" clip-path="url(#clipPath2)" width="400" rx="4" ry="4" height="100" stroke="none"/>
    </g>
    <g text-rendering="geometricPrecision" stroke-miterlimit="1.45" shape-rendering="geometricPrecision" transform="matrix(1,0,0,1,215,215)" stroke-linecap="butt">
      <rect x="300" y="1100" clip-path="url(#clipPath2)" fill="none" width="400" rx="4" ry="4" height="100"/>
      <text x="306" xml:space="preserve" y="1118.0645" clip-path="url(#clipPath2)" font-family="sans-serif" stroke="none">7 segment display</text>
    </g>
    <g fill="white" text-rendering="geometricPrecision" shape-rendering="geometricPrecision" transform="matrix(1,0,0,1,215,215)" stroke="white">
      <rect x="-200" y="300" clip-path="url(#clipPath2)" width="100" rx="4" ry="4" height="400" stroke="none"/>
    </g>
    <g text-rendering="geometricPrecision" stroke-miterlimit="1.45" shape-rendering="geometricPrecision" transform="matrix(1,0,0,1,215,215)" stroke-linecap="butt">
      <rect x="-200" y="300" clip-path="url(#clipPath2)" fill="none" width="100" rx="4" ry="4" height="400"/>
      <text x="-162.6709" xml:space="preserve" y="504.7139" clip-path="url(#clipPath2)" font-family="sans-serif" stroke="none">VGA</text>
    </g>
    <g fill="white" text-rendering="geometricPrecision" shape-rendering="geometricPrecision" transform="matrix(1,0,0,1,215,215)" stroke="white">
      <rect x="1100" y="400" clip-path="url(#clipPath2)" width="100" rx="4" ry="4" height="200" stroke="none"/>
    </g>
    <g text-rendering="geometricPrecision" stroke-miterlimit="1.45" shape-rendering="geometricPrecision" transform="matrix(1,0,0,1,215,215)" stroke-linecap="butt">
      <rect x="1100" y="400" clip-path="url(#clipPath2)" fill="none" width="100" rx="4" ry="4" height="200"/>
      <text x="1106" xml:space="preserve" y="418.0645" clip-path="url(#clipPath2)" font-family="sans-serif" stroke="none">LEDs</text>
    </g>
    <g fill="white" text-rendering="geometricPrecision" shape-rendering="geometricPrecision" transform="matrix(1,0,0,1,215,215)" stroke="white">
      <rect x="1100" y="100" clip-path="url(#clipPath2)" width="100" rx="4" ry="4" height="200" stroke="none"/>
    </g>
    <g text-rendering="geometricPrecision" stroke-miterlimit="1.45" shape-rendering="geometricPrecision" transform="matrix(1,0,0,1,215,215)" stroke-linecap="butt">
      <rect x="1100" y="100" clip-path="url(#clipPath2)" fill="none" width="100" rx="4" ry="4" height="200"/>
      <text x="1106" xml:space="preserve" y="118.0645" clip-path="url(#clipPath2)" font-family="sans-serif" stroke="none">Buttons</text>
    </g>
    <g fill="rgb(255,153,0)" text-rendering="geometricPrecision" shape-rendering="geometricPrecision" transform="matrix(1,0,0,1,215,215)" stroke="rgb(255,153,0)">
      <rect x="40" width="75" height="400" y="300" clip-path="url(#clipPath2)" stroke="none"/>
    </g>
    <g text-rendering="geometricPrecision" stroke-miterlimit="1.45" shape-rendering="geometricPrecision" transform="matrix(1,0,0,1,215,215)" stroke-linecap="butt">
      <rect fill="none" x="40" width="75" height="400" y="300" clip-path="url(#clipPath2)"/>
      <text x="46" y="318.0645" clip-path="url(#clipPath2)" font-family="sans-serif" stroke="none" font-weight="bold" xml:space="preserve">vga.vhd</text>
    </g>
    <g fill="rgb(0,204,255)" text-rendering="geometricPrecision" shape-rendering="geometricPrecision" transform="matrix(1,0,0,1,215,215)" stroke="rgb(0,204,255)">
      <rect x="584.0556" width="100" height="100" y="710" clip-path="url(#clipPath2)" stroke="none"/>
    </g>
    <g text-rendering="geometricPrecision" stroke-miterlimit="1.45" shape-rendering="geometricPrecision" transform="matrix(1,0,0,1,215,215)" stroke-linecap="butt">
      <rect fill="none" x="584.0556" width="100" height="100" y="710" clip-path="url(#clipPath2)"/>
      <text x="590.0556" y="728.0645" clip-path="url(#clipPath2)" font-family="sans-serif" stroke="none" font-weight="bold" xml:space="preserve">Apples.vhd</text>
    </g>
    <g fill="rgb(255,255,153)" text-rendering="geometricPrecision" shape-rendering="geometricPrecision" transform="matrix(1,0,0,1,215,215)" stroke="rgb(255,255,153)">
      <rect x="880" width="75" height="200" y="100" clip-path="url(#clipPath2)" stroke="none"/>
    </g>
    <g text-rendering="geometricPrecision" stroke-miterlimit="1.45" shape-rendering="geometricPrecision" transform="matrix(1,0,0,1,215,215)" stroke-linecap="butt">
      <rect fill="none" x="880" width="75" height="200" y="100" clip-path="url(#clipPath2)"/>
      <text x="882.5049" y="118.0645" clip-path="url(#clipPath2)" font-family="sans-serif" stroke="none" font-weight="bold" xml:space="preserve">Buttons.vhd</text>
    </g>
    <g fill="rgb(255,255,153)" text-rendering="geometricPrecision" shape-rendering="geometricPrecision" transform="matrix(1,0,0,1,215,215)" stroke="rgb(255,255,153)">
      <rect x="867.5" width="100" height="75" y="458.5" clip-path="url(#clipPath2)" stroke="none"/>
    </g>
    <g text-rendering="geometricPrecision" stroke-miterlimit="1.45" shape-rendering="geometricPrecision" transform="matrix(1,0,0,1,215,215)" stroke-linecap="butt">
      <rect fill="none" x="867.5" width="100" height="75" y="458.5" clip-path="url(#clipPath2)"/>
      <text x="873.5" y="476.5645" clip-path="url(#clipPath2)" font-family="sans-serif" stroke="none" font-weight="bold" xml:space="preserve">Gametick.vhd</text>
    </g>
    <g fill="rgb(255,255,153)" text-rendering="geometricPrecision" shape-rendering="geometricPrecision" transform="matrix(1,0,0,1,215,215)" stroke="rgb(255,255,153)">
      <rect x="158.0069" width="200" height="221.76" y="400" clip-path="url(#clipPath2)" stroke="none"/>
    </g>
    <g text-rendering="geometricPrecision" stroke-miterlimit="1.45" shape-rendering="geometricPrecision" transform="matrix(1,0,0,1,215,215)" stroke-linecap="butt">
      <rect fill="none" x="158.0069" width="200" height="221.76" y="400" clip-path="url(#clipPath2)"/>
      <text x="164.0069" y="418.0645" clip-path="url(#clipPath2)" font-family="sans-serif" stroke="none" font-weight="bold" xml:space="preserve">GameArea.vhd</text>
    </g>
    <g fill="rgb(255,153,255)" text-rendering="geometricPrecision" shape-rendering="geometricPrecision" transform="matrix(1,0,0,1,215,215)" stroke="rgb(255,153,255)">
      <rect x="742.0973" width="100" height="620" y="190" clip-path="url(#clipPath2)" stroke="none"/>
    </g>
    <g text-rendering="geometricPrecision" stroke-miterlimit="1.45" shape-rendering="geometricPrecision" transform="matrix(1,0,0,1,215,215)" stroke-linecap="butt">
      <rect fill="none" x="742.0973" width="100" height="620" y="190" clip-path="url(#clipPath2)"/>
      <text x="748.0973" y="208.0645" clip-path="url(#clipPath2)" font-family="sans-serif" stroke="none" font-weight="bold" xml:space="preserve">Gamelogic.vhd</text>
    </g>
    <g fill="rgb(255,153,255)" text-rendering="geometricPrecision" shape-rendering="geometricPrecision" transform="matrix(1,0,0,1,215,215)" stroke="rgb(255,153,255)">
      <rect x="584.0556" width="100" height="100" y="190" clip-path="url(#clipPath2)" stroke="none"/>
    </g>
    <g text-rendering="geometricPrecision" stroke-miterlimit="1.45" shape-rendering="geometricPrecision" transform="matrix(1,0,0,1,215,215)" stroke-linecap="butt">
      <rect fill="none" x="584.0556" width="100" height="100" y="190" clip-path="url(#clipPath2)"/>
      <text x="590.0556" y="208.0645" clip-path="url(#clipPath2)" font-family="sans-serif" stroke="none" font-weight="bold" xml:space="preserve">Head.vhd</text>
    </g>
    <g fill="rgb(255,255,153)" text-rendering="geometricPrecision" shape-rendering="geometricPrecision" transform="matrix(1,0,0,1,215,215)" stroke="rgb(255,255,153)">
      <rect x="584.0556" width="100" height="100" y="447.5" clip-path="url(#clipPath2)" stroke="none"/>
    </g>
    <g text-rendering="geometricPrecision" stroke-miterlimit="1.45" shape-rendering="geometricPrecision" transform="matrix(1,0,0,1,215,215)" stroke-linecap="butt">
      <rect fill="none" x="584.0556" width="100" height="100" y="447.5" clip-path="url(#clipPath2)"/>
      <text x="590.0556" y="465.5645" clip-path="url(#clipPath2)" font-family="sans-serif" stroke="none" font-weight="bold" xml:space="preserve">init.vhd</text>
    </g>
    <g fill="rgb(255,255,153)" text-rendering="geometricPrecision" shape-rendering="geometricPrecision" transform="matrix(1,0,0,1,215,215)" stroke="rgb(255,255,153)">
      <rect x="401.0139" width="125" height="620" y="190" clip-path="url(#clipPath2)" stroke="none"/>
    </g>
    <g text-rendering="geometricPrecision" stroke-miterlimit="1.45" shape-rendering="geometricPrecision" transform="matrix(1,0,0,1,215,215)" stroke-linecap="butt">
      <rect fill="none" x="401.0139" width="125" height="620" y="190" clip-path="url(#clipPath2)"/>
      <text x="407.0139" y="208.0645" clip-path="url(#clipPath2)" font-family="sans-serif" stroke="none" font-weight="bold" xml:space="preserve">GameAreaMux.vhd</text>
    </g>
    <g fill="rgb(255,153,255)" text-rendering="geometricPrecision" shape-rendering="geometricPrecision" transform="matrix(1,0,0,1,215,215)" stroke="rgb(255,153,255)">
      <rect x="880" width="75" height="200" y="700" clip-path="url(#clipPath2)" stroke="none"/>
    </g>
    <g text-rendering="geometricPrecision" stroke-miterlimit="1.45" shape-rendering="geometricPrecision" transform="matrix(1,0,0,1,215,215)" stroke-linecap="butt">
      <rect fill="none" x="880" width="75" height="200" y="700" clip-path="url(#clipPath2)"/>
      <text x="886" y="718.0645" clip-path="url(#clipPath2)" font-family="sans-serif" stroke="none" font-weight="bold" xml:space="preserve">LFSR.vhd</text>
    </g>
    <g fill="rgb(255,255,153)" text-rendering="geometricPrecision" shape-rendering="geometricPrecision" transform="matrix(1,0,0,1,215,215)" stroke="rgb(255,255,153)">
      <rect x="584.0556" width="100" height="100" y="318.75" clip-path="url(#clipPath2)" stroke="none"/>
    </g>
    <g text-rendering="geometricPrecision" stroke-miterlimit="1.45" shape-rendering="geometricPrecision" transform="matrix(1,0,0,1,215,215)" stroke-linecap="butt">
      <rect fill="none" x="584.0556" width="100" height="100" y="318.75" clip-path="url(#clipPath2)"/>
      <text x="590.0556" y="336.8145" clip-path="url(#clipPath2)" font-family="sans-serif" stroke="none" font-weight="bold" xml:space="preserve">reset.vhd</text>
    </g>
    <g fill="rgb(255,255,153)" text-rendering="geometricPrecision" shape-rendering="geometricPrecision" transform="matrix(1,0,0,1,215,215)" stroke="rgb(255,255,153)">
      <rect x="300" width="400" height="75" y="880" clip-path="url(#clipPath2)" stroke="none"/>
    </g>
    <g text-rendering="geometricPrecision" stroke-miterlimit="1.45" shape-rendering="geometricPrecision" transform="matrix(1,0,0,1,215,215)" stroke-linecap="butt">
      <rect fill="none" x="300" width="400" height="75" y="880" clip-path="url(#clipPath2)"/>
      <text x="470.9902" y="898.0645" clip-path="url(#clipPath2)" font-family="sans-serif" stroke="none" font-weight="bold" xml:space="preserve">Score.vhd</text>
    </g>
    <g fill="rgb(255,255,153)" text-rendering="geometricPrecision" shape-rendering="geometricPrecision" transform="matrix(1,0,0,1,215,215)" stroke="rgb(255,255,153)">
      <rect x="584.0556" width="100" height="100" y="580" clip-path="url(#clipPath2)" stroke="none"/>
    </g>
    <g text-rendering="geometricPrecision" stroke-miterlimit="1.45" shape-rendering="geometricPrecision" transform="matrix(1,0,0,1,215,215)" stroke-linecap="butt">
      <rect fill="none" x="584.0556" width="100" height="100" y="580" clip-path="url(#clipPath2)"/>
      <text x="590.0556" y="598.0645" clip-path="url(#clipPath2)" font-family="sans-serif" stroke="none" font-weight="bold" xml:space="preserve">Tail.vhd</text>
    </g>
    <g fill="rgb(255,255,153)" text-rendering="geometricPrecision" shape-rendering="geometricPrecision" transform="matrix(1,0,0,1,215,215)" stroke="rgb(255,255,153)">
      <rect x="170.5069" width="175" height="50" y="540.084" clip-path="url(#clipPath2)" stroke="none"/>
    </g>
    <g text-rendering="geometricPrecision" stroke-miterlimit="1.45" shape-rendering="geometricPrecision" transform="matrix(1,0,0,1,215,215)" stroke-linecap="butt">
      <rect fill="none" x="170.5069" width="175" height="50" y="540.084" clip-path="url(#clipPath2)"/>
      <text x="192.9825" y="569.7979" clip-path="url(#clipPath2)" font-family="sans-serif" stroke="none" font-weight="bold" xml:space="preserve">game_tile_storage.vhd</text>
      <path fill="none" d="M500 -100.0122 L500 -8.0488" clip-path="url(#clipPath2)"/>
      <path d="M500 -0.0488 L505 -12.0488 L500 -9.0488 L495 -12.0488 Z" clip-path="url(#clipPath2)" stroke="none"/>
      <text x="491.667" xml:space="preserve" y="17.7006" clip-path="url(#clipPath2)" font-family="sans-serif" stroke="none">clk</text>
      <path fill="none" d="M1099.9615 800 L988.9966 800 L988.9966 500 L1089.9615 500" stroke-width="3" clip-path="url(#clipPath2)"/>
      <path d="M1099.9615 500 L1084.9615 493.75 L1088.7115 500 L1084.9615 506.25 Z" stroke-width="3" clip-path="url(#clipPath2)" stroke="none"/>
      <path fill="none" d="M1150 99.9866 L1150 37.5147 L1007.9911 37.5147" clip-path="url(#clipPath2)"/>
      <path d="M999.9911 37.5147 L1011.9911 42.5147 L1008.9911 37.5147 L1011.9911 32.5147 Z" clip-path="url(#clipPath2)" stroke="none"/>
      <text x="970.0532" xml:space="preserve" y="42.2319" clip-path="url(#clipPath2)" font-family="sans-serif" stroke="none">reset</text>
      <path fill="none" d="M40 500 L-90.0415 500" stroke-width="3" clip-path="url(#clipPath2)"/>
      <path d="M-100.0415 500 L-85.0415 506.25 L-88.7915 500 L-85.0415 493.75 Z" stroke-width="3" clip-path="url(#clipPath2)" stroke="none"/>
      <text x="42.2602" xml:space="preserve" y="505.1139" clip-path="url(#clipPath2)" font-family="sans-serif" stroke="none">VGA_G</text>
      <path fill="none" d="M39.9657 464.969 L-89.9813 464.969" stroke-width="3" clip-path="url(#clipPath2)"/>
      <path d="M-99.9813 464.969 L-84.9813 471.219 L-88.7313 464.969 L-84.9813 458.719 Z" stroke-width="3" clip-path="url(#clipPath2)" stroke="none"/>
      <text x="44.0592" xml:space="preserve" y="470.8829" clip-path="url(#clipPath2)" font-family="sans-serif" stroke="none">VGA_R</text>
      <path fill="none" d="M40.0251 544.969 L-89.9664 544.969" stroke-width="3" clip-path="url(#clipPath2)"/>
      <path d="M-99.9664 544.969 L-84.9664 551.219 L-88.7164 544.969 L-84.9664 538.719 Z" stroke-width="3" clip-path="url(#clipPath2)" stroke="none"/>
      <text x="42.7902" xml:space="preserve" y="550.8829" clip-path="url(#clipPath2)" font-family="sans-serif" stroke="none">VGA_B</text>
      <path fill="none" d="M40.0282 582.569 L-91.9909 582.569" clip-path="url(#clipPath2)"/>
      <path d="M-99.9909 582.569 L-87.9909 587.569 L-90.9909 582.569 L-87.9909 577.569 Z" clip-path="url(#clipPath2)" stroke="none"/>
      <text x="44.0572" xml:space="preserve" y="589.2828" clip-path="url(#clipPath2)" font-family="sans-serif" stroke="none">VGA_HS</text>
      <path fill="none" d="M39.9924 610.569 L-91.9871 610.569" clip-path="url(#clipPath2)"/>
      <path d="M-99.9871 610.569 L-87.9871 615.569 L-90.9871 610.569 L-87.9871 605.569 Z" clip-path="url(#clipPath2)" stroke="none"/>
      <text x="43.5883" xml:space="preserve" y="614.0829" clip-path="url(#clipPath2)" font-family="sans-serif" stroke="none">VGA_VS</text>
      <path fill="none" d="M1100.0205 200 L963 200" clip-path="url(#clipPath2)"/>
      <path d="M955 200 L967 205 L964 200 L967 195 Z" clip-path="url(#clipPath2)" stroke="none"/>
      <path fill="none" d="M1099.9744 174.6159 L963.0104 174.6159" clip-path="url(#clipPath2)"/>
      <path d="M955.0104 174.6159 L967.0104 179.6159 L964.0104 174.6159 L967.0104 169.6159 Z" clip-path="url(#clipPath2)" stroke="none"/>
      <path fill="none" d="M1100.007 226.3147 L963.0029 226.3147" clip-path="url(#clipPath2)"/>
      <path d="M955.0029 226.3147 L967.0029 231.3147 L964.0029 226.3147 L967.0029 221.3147 Z" clip-path="url(#clipPath2)" stroke="none"/>
      <path fill="none" d="M1099.9808 253.8347 L962.9979 253.8347" clip-path="url(#clipPath2)"/>
      <path d="M954.9979 253.8347 L966.9979 258.8347 L963.9979 253.8347 L966.9979 248.8347 Z" clip-path="url(#clipPath2)" stroke="none"/>
      <path fill="none" d="M917.5 458.5 L917.5 308" clip-path="url(#clipPath2)"/>
      <path d="M917.5 300 L912.5 312 L917.5 309 L922.5 312 Z" clip-path="url(#clipPath2)" stroke="none"/>
      <path fill="none" d="M115.0209 453.1691 L147.029 453.1691" stroke-width="4" clip-path="url(#clipPath2)"/>
      <path d="M158.029 453.1691 L141.529 446.2941 L145.654 453.1691 L141.529 460.0441 Z" stroke-width="4" clip-path="url(#clipPath2)" stroke="none"/>
      <text x="162.1694" xml:space="preserve" y="459.211" clip-path="url(#clipPath2)" font-family="sans-serif" stroke="none">next_pix</text>
      <path fill="none" d="M158.003 515.2988 L122.989 515.2988" clip-path="url(#clipPath2)"/>
      <path d="M114.989 515.2988 L126.989 520.2988 L123.989 515.2988 L126.989 510.2988 Z" clip-path="url(#clipPath2)" stroke="none"/>
      <text x="164.4307" xml:space="preserve" y="519.5039" clip-path="url(#clipPath2)" font-family="sans-serif" stroke="none">pix_col</text>
      <path fill="none" d="M191.0805 621.7812 L191.0805 843.4779 L559.0804 843.4779 L559.0804 794.1979 L576.0416 794.1979" clip-path="url(#clipPath2)"/>
      <path d="M584.0416 794.1979 L572.0416 789.1979 L575.0416 794.1979 L572.0416 799.1979 Z" clip-path="url(#clipPath2)" stroke="none"/>
      <path fill="none" d="M684.0927 773.0703 L734.0978 773.0703" clip-path="url(#clipPath2)"/>
      <path d="M742.0978 773.0703 L730.0978 768.0703 L733.0978 773.0703 L730.0978 778.0703 Z" clip-path="url(#clipPath2)" stroke="none"/>
      <text x="745.8906" xml:space="preserve" y="779.7595" clip-path="url(#clipPath2)" font-family="sans-serif" stroke="none">apples_done</text>
      <path fill="none" d="M917.5 458.5 L917.5 409.7985 L850.0649 409.7985" clip-path="url(#clipPath2)"/>
      <path d="M842.0649 409.7985 L854.0649 414.7985 L851.0649 409.7985 L854.0649 404.7985 Z" clip-path="url(#clipPath2)" stroke="none"/>
      <path fill="none" d="M742.0911 739.2407 L692.0872 739.2407" clip-path="url(#clipPath2)"/>
      <path d="M684.0872 739.2407 L696.0872 744.2407 L693.0872 739.2407 L696.0872 734.2407 Z" clip-path="url(#clipPath2)" stroke="none"/>
      <text x="746.0107" xml:space="preserve" y="743.7217" clip-path="url(#clipPath2)" font-family="sans-serif" stroke="none">run_apples</text>
      <path fill="none" d="M742.1139 225.1323 L692.085 225.1323" clip-path="url(#clipPath2)"/>
      <path d="M684.085 225.1323 L696.085 230.1323 L693.085 225.1323 L696.085 220.1323 Z" clip-path="url(#clipPath2)" stroke="none"/>
      <text x="746.0724" xml:space="preserve" y="229.5421" clip-path="url(#clipPath2)" font-family="sans-serif" stroke="none">run_head</text>
      <path fill="none" d="M879.9791 140.9333 L634.0556 140.9333 L634.0556 181" stroke-width="2" clip-path="url(#clipPath2)"/>
      <path d="M634.0556 190 L639.6806 176.5 L634.0556 179.875 L628.4306 176.5 Z" stroke-width="2" clip-path="url(#clipPath2)" stroke="none"/>
      <text x="884.1362" xml:space="preserve" y="145.2695" clip-path="url(#clipPath2)" font-family="sans-serif" stroke="none">direction</text>
      <path fill="none" d="M328.8018 399.9996 L328.8018 149.4354 L595.6818 149.4354 L595.6818 181.9808" clip-path="url(#clipPath2)"/>
      <path d="M595.6818 189.9808 L600.6818 177.9808 L595.6818 180.9808 L590.6818 177.9808 Z" clip-path="url(#clipPath2)" stroke="none"/>
      <text x="299.8034" xml:space="preserve" y="416.2563" clip-path="url(#clipPath2)" font-family="sans-serif" stroke="none">head_pos</text>
      <path fill="none" d="M684.0688 263.0703 L734.0664 263.0703" clip-path="url(#clipPath2)"/>
      <path d="M742.0664 263.0703 L730.0664 258.0703 L733.0664 263.0703 L730.0664 268.0703 Z" clip-path="url(#clipPath2)" stroke="none"/>
      <text x="746.0773" xml:space="preserve" y="267.5762" clip-path="url(#clipPath2)" font-family="sans-serif" stroke="none">head_done</text>
      <path fill="none" d="M742.0664 465.5703 L692.0357 465.5703" clip-path="url(#clipPath2)"/>
      <path d="M684.0357 465.5703 L696.0357 470.5703 L693.0357 465.5703 L696.0357 460.5703 Z" clip-path="url(#clipPath2)" stroke="none"/>
      <text x="745.477" xml:space="preserve" y="470.8762" clip-path="url(#clipPath2)" font-family="sans-serif" stroke="none">run_init</text>
      <path fill="none" d="M684.0601 523.0703 L734.0756 523.0703" clip-path="url(#clipPath2)"/>
      <path d="M742.0756 523.0703 L730.0756 518.0703 L733.0756 523.0703 L730.0756 528.0703 Z" clip-path="url(#clipPath2)" stroke="none"/>
      <text x="746.0612" xml:space="preserve" y="528.3442" clip-path="url(#clipPath2)" font-family="sans-serif" stroke="none">init_done</text>
      <path fill="none" d="M584.0556 760 L525.9699 760" stroke-width="7" clip-path="url(#clipPath2)"/>
      <path fill="none" d="M584.0556 240 L526.0011 240" stroke-width="7" clip-path="url(#clipPath2)"/>
      <path fill="none" d="M584.0556 497.5 L526.0366 497.5" stroke-width="7" clip-path="url(#clipPath2)"/>
      <path fill="none" d="M358.007 510.88 L401.0058 510.88" stroke-width="7" clip-path="url(#clipPath2)"/>
      <text x="301.8207" xml:space="preserve" y="490.5693" clip-path="url(#clipPath2)" font-family="sans-serif" stroke="none">tile_coord</text>
      <text x="283.8265" xml:space="preserve" y="505.2705" clip-path="url(#clipPath2)" font-family="sans-serif" stroke="none">tile_from_GA</text>
      <text x="297.8187" xml:space="preserve" y="519.9717" clip-path="url(#clipPath2)" font-family="sans-serif" stroke="none">tile_to_GA</text>
      <text x="315.8304" xml:space="preserve" y="534.6729" clip-path="url(#clipPath2)" font-family="sans-serif" stroke="none">set_tile</text>
      <path fill="none" d="M1100.0205 800 L966 800" stroke-width="4" clip-path="url(#clipPath2)"/>
      <path d="M955 800 L971.5 806.875 L967.375 800 L971.5 793.125 Z" stroke-width="4" clip-path="url(#clipPath2)" stroke="none"/>
      <path fill="none" d="M879.9843 854.502 L628.2933 854.502 L628.2933 817.9796" clip-path="url(#clipPath2)"/>
      <path d="M628.2933 809.9796 L623.2933 821.9796 L628.2933 818.9796 L633.2933 821.9796 Z" clip-path="url(#clipPath2)" stroke="none"/>
      <text x="885.5305" xml:space="preserve" y="860.4158" clip-path="url(#clipPath2)" font-family="sans-serif" stroke="none">seed</text>
      <path fill="none" d="M742.0908 356.2338 L692.0178 356.2338" clip-path="url(#clipPath2)"/>
      <path d="M684.0178 356.2338 L696.0178 361.2338 L693.0178 356.2338 L696.0178 351.2338 Z" clip-path="url(#clipPath2)" stroke="none"/>
      <text x="745.8574" xml:space="preserve" y="361.376" clip-path="url(#clipPath2)" font-family="sans-serif" stroke="none">run_reset</text>
      <path fill="none" d="M684.0356 396.7558 L734.0749 396.7558" clip-path="url(#clipPath2)"/>
      <path d="M742.0749 396.7558 L730.0749 391.7558 L733.0749 396.7558 L730.0749 401.7558 Z" clip-path="url(#clipPath2)" stroke="none"/>
      <text x="745.9995" xml:space="preserve" y="400.0058" clip-path="url(#clipPath2)" font-family="sans-serif" stroke="none">reset_done</text>
      <path fill="none" d="M584.0556 368.75 L526.0357 368.75" stroke-width="7" clip-path="url(#clipPath2)"/>
      <path fill="none" d="M191.0805 621.7495 L191.0805 805.7179 L191.0805 917.5 L292 917.5" clip-path="url(#clipPath2)"/>
      <path d="M300 917.5 L288 912.5 L291 917.5 L288 922.5 Z" clip-path="url(#clipPath2)" stroke="none"/>
      <text x="164.1918" xml:space="preserve" y="612.4312" clip-path="url(#clipPath2)" font-family="sans-serif" stroke="none">apple_placed</text>
      <path fill="none" d="M476.6969 955.0213 L476.6969 1090.0311" stroke-width="3" clip-path="url(#clipPath2)"/>
      <path d="M476.6969 1100.0311 L482.9469 1085.0311 L476.6969 1088.7811 L470.4469 1085.0311 Z" stroke-width="3" clip-path="url(#clipPath2)" stroke="none"/>
      <text x="464.746" xml:space="preserve" y="947.0939" clip-path="url(#clipPath2)" font-family="sans-serif" stroke="none">SEG</text>
      <path fill="none" d="M534.2969 955.0054 L534.2969 1091.9899" clip-path="url(#clipPath2)"/>
      <path d="M534.2969 1099.9899 L539.2969 1087.9899 L534.2969 1090.9899 L529.2969 1087.9899 Z" clip-path="url(#clipPath2)" stroke="none"/>
      <text x="526.0419" xml:space="preserve" y="947.7339" clip-path="url(#clipPath2)" font-family="sans-serif" stroke="none">DP</text>
      <path fill="none" d="M583.5306 954.9853 L583.5306 1089.9706" stroke-width="3" clip-path="url(#clipPath2)"/>
      <path d="M583.5306 1099.9706 L589.7806 1084.9706 L583.5306 1088.7206 L577.2806 1084.9706 Z" stroke-width="3" clip-path="url(#clipPath2)" stroke="none"/>
      <text x="575.9156" xml:space="preserve" y="949.2699" clip-path="url(#clipPath2)" font-family="sans-serif" stroke="none">AN</text>
      <path fill="none" d="M742.0742 608.0703 L692.0663 608.0703" clip-path="url(#clipPath2)"/>
      <path d="M684.0663 608.0703 L696.0663 613.0703 L693.0663 608.0703 L696.0663 603.0703 Z" clip-path="url(#clipPath2)" stroke="none"/>
      <text x="746.1337" xml:space="preserve" y="613.5042" clip-path="url(#clipPath2)" font-family="sans-serif" stroke="none">run_tail</text>
      <path fill="none" d="M331.2405 621.7559 L331.2405 822.9979 L543.0804 822.9979 L543.0804 644.4379 L576.0664 644.4379" clip-path="url(#clipPath2)"/>
      <path d="M584.0664 644.4379 L572.0664 639.4379 L575.0664 644.4379 L572.0664 649.4379 Z" clip-path="url(#clipPath2)" stroke="none"/>
      <text x="311.2798" xml:space="preserve" y="613.9481" clip-path="url(#clipPath2)" font-family="sans-serif" stroke="none">tail_pos</text>
      <path fill="none" d="M191.0805 621.7764 L191.0805 843.4779 L559.0804 843.4779 L559.0804 665.5579 L576.0508 665.5579" clip-path="url(#clipPath2)"/>
      <path d="M584.0508 665.5579 L572.0508 660.5579 L575.0508 665.5579 L572.0508 670.5579 Z" clip-path="url(#clipPath2)" stroke="none"/>
      <path fill="none" d="M684.0508 649.3203 L734.124 649.3203" clip-path="url(#clipPath2)"/>
      <path d="M742.124 649.3203 L730.124 644.3203 L733.124 649.3203 L730.124 654.3203 Z" clip-path="url(#clipPath2)" stroke="none"/>
      <text x="746.1819" xml:space="preserve" y="655.8742" clip-path="url(#clipPath2)" font-family="sans-serif" stroke="none">tail_done</text>
      <path fill="none" d="M584.0556 630 L526.0117 630" stroke-width="7" clip-path="url(#clipPath2)"/>
    </g>
  </g>
</svg>
